<?xml version="1.0" encoding="UTF-8" standalone="no"?>
<!DOCTYPE svg PUBLIC "-//W3C//DTD SVG 1.1//EN" "http://www.w3.org/Graphics/SVG/1.1/DTD/svg11.dtd">
<svg width="100%" height="100%" viewBox="0 0 1182 1182" version="1.1" xmlns="http://www.w3.org/2000/svg" xmlns:xlink="http://www.w3.org/1999/xlink" xml:space="preserve" xmlns:serif="http://www.serif.com/" style="fill-rule:evenodd;clip-rule:evenodd;stroke-linejoin:round;stroke-miterlimit:2;">
    <g transform="matrix(1,0,0,1,-114.511,36.6282)">
        <g transform="matrix(1,0,0,1,114.511,-89.788)">
            <path d="M225.591,1037.01C236.892,1063.35 237.041,1062.9 265.748,1062.99L915.938,1062.99C943.833,1063.15 944.01,1063.09 954.799,1036.55L1122.05,590.551L59.055,590.551L225.591,1037.01ZM394.547,896.895C396.015,894.976 397.369,892.906 398.608,890.687C398.782,888.603 398.608,886.867 398.087,885.478C397.566,884.089 397.48,882.266 397.827,880.009C397.75,879.971 397.674,879.933 397.598,879.894C397.751,878.674 397.827,877.454 397.827,876.233C397.827,874.931 397.74,873.846 397.566,872.978C399.303,868.464 400.735,863.82 401.863,859.046C402.992,854.272 404.033,849.541 404.988,844.853C405.943,840.166 406.941,835.565 407.983,831.051C409.025,826.537 410.414,822.371 412.15,818.551C414.059,818.204 416.186,818.421 418.53,819.202C420.874,819.983 422.306,820.982 422.827,822.197C427.341,818.725 431.334,814.515 434.806,809.567C438.278,804.619 441.837,799.801 445.483,795.114C449.129,790.426 453.165,786.259 457.592,782.614C462.02,778.968 467.618,776.798 474.389,776.103C477.862,778.707 481.724,781.355 485.978,784.046C490.231,786.737 493.747,790.252 496.525,794.593C497.914,795.287 499.086,796.025 500.04,796.806C500.995,797.588 502.167,798.412 503.556,799.28L503.556,802.405C505.639,804.315 507.332,806.529 508.634,809.046C509.936,811.563 511.108,814.254 512.15,817.119C513.191,819.983 514.233,822.848 515.275,825.713C516.316,828.577 517.532,831.312 518.921,833.916C518.573,834.784 518.4,835.522 518.4,836.129C518.4,836.737 518.53,837.388 518.79,838.082C519.051,838.777 519.268,839.471 519.441,840.166C519.615,840.86 519.615,841.815 519.441,843.03C518.921,850.669 516.447,856.832 512.02,861.52C507.592,866.207 502.254,870.07 496.004,873.108C489.754,876.147 483.07,878.707 475.952,880.791C468.834,882.874 462.41,885.131 456.681,887.562C456.681,888.256 456.985,888.603 457.592,888.603C458.2,888.603 458.417,889.037 458.243,889.905C462.41,892.509 465.709,894.593 468.139,896.155C470.57,897.718 472.87,899.02 475.04,900.062C477.211,901.103 479.554,902.015 482.072,902.796C484.589,903.577 488.105,904.489 492.618,905.53C497.132,906.572 500.648,907.397 503.165,908.004C505.683,908.612 507.983,909.133 510.066,909.567C512.15,910.001 514.276,910.348 516.447,910.608C518.617,910.869 521.698,911.173 525.691,911.52C527.254,913.082 528.599,914.949 529.728,917.119C530.856,919.289 531.594,921.459 531.941,923.629C532.289,925.799 532.375,927.883 532.202,929.879C532.028,931.876 531.421,933.482 530.379,934.697C530.553,935.218 530.943,935.435 531.551,935.348C532.158,935.261 532.809,935.305 533.504,935.478C532.462,936.173 531.594,937.041 530.9,938.082C530.205,939.124 529.511,940.166 528.816,941.207C528.122,942.249 527.341,943.16 526.473,943.942C525.605,944.723 524.389,945.2 522.827,945.374C517.445,947.457 510.674,947.588 502.514,945.765C494.355,943.942 484.025,940.6 471.525,935.739C465.275,933.308 460.197,931.181 456.29,929.358C452.384,927.535 448.999,925.713 446.134,923.89C443.27,922.067 440.665,920.114 438.322,918.03C435.978,915.947 433.157,913.43 429.858,910.478C427.948,917.423 426.256,922.674 424.78,926.233C423.304,929.792 421.091,933.482 418.139,937.301C415.882,936.954 414.32,937.214 413.452,938.082C412.584,938.95 411.629,939.732 410.587,940.426C409.025,940.773 407.896,940.773 407.202,940.426C406.507,940.079 405.9,939.688 405.379,939.254C404.858,938.82 404.207,938.386 403.426,937.952C402.645,937.518 401.473,937.301 399.91,937.301C399.563,935.912 399.172,934.61 398.738,933.395C398.304,932.18 397.132,931.746 395.223,932.093C395.57,930.704 395.657,929.532 395.483,928.577C395.309,927.622 395.092,926.754 394.832,925.973C394.572,925.192 394.355,924.41 394.181,923.629C394.007,922.848 394.094,921.85 394.441,920.634C393.573,920.634 392.879,920.027 392.358,918.812C391.837,917.596 391.23,916.381 390.535,915.166C391.056,912.041 391.577,909.089 392.098,906.312C392.618,903.534 393.27,900.93 394.051,898.499C394.223,897.965 394.388,897.43 394.547,896.895ZM952.514,775.322L956.16,774.801L957.202,778.187C957.896,780.096 959.329,781.832 961.499,783.395C963.669,784.957 965.969,786.433 968.4,787.822L970.743,789.384C971.612,791.121 972.046,792.423 972.046,793.291C972.046,794.159 971.959,794.94 971.785,795.634L972.827,798.239C971.438,802.405 969.745,805.443 967.749,807.353C965.752,809.263 963.799,810.999 961.889,812.562C960.327,813.95 958.895,815.209 957.592,816.338C956.29,817.466 955.292,818.898 954.598,820.634L952.775,822.718C949.129,824.801 946.785,827.579 945.743,831.051L944.962,834.176L941.837,834.176C941.664,834.176 941.273,834.48 940.665,835.088C940.058,835.695 939.146,837.214 937.931,839.645C936.716,841.381 935.848,842.509 935.327,843.03C934.806,843.551 934.372,843.985 934.025,844.332C933.851,845.027 933.634,845.678 933.374,846.285C933.113,846.893 932.809,847.631 932.462,848.499C930.205,850.756 928.816,852.449 928.296,853.577C927.775,854.706 927.167,855.964 926.473,857.353C925.778,858.742 925.127,860.088 924.52,861.39C923.912,862.692 922.914,864.037 921.525,865.426L920.223,869.332C919.007,870.374 917.966,871.633 917.098,873.108C916.23,874.584 915.362,876.103 914.493,877.666C913.625,879.575 912.671,881.398 911.629,883.134C910.587,884.871 909.285,886.433 907.723,887.822C906.855,890.426 905.987,892.466 905.118,893.942C904.25,895.417 902.862,897.11 900.952,899.02C899.216,905.964 895.136,913.516 888.712,921.676C888.539,923.239 888.061,924.758 887.28,926.233C886.499,927.709 885.674,929.141 884.806,930.53C884.459,931.051 884.112,931.615 883.764,932.223C883.417,932.831 883.157,933.308 882.983,933.655L882.462,936.259C881.594,937.648 880.639,938.864 879.598,939.905C878.556,940.947 877.601,941.902 876.733,942.77C876.386,943.291 875.778,943.985 874.91,944.853L871.004,946.416C858.33,944.68 850.605,937.909 847.827,926.103L848.087,923.499C848.434,922.631 848.738,921.719 848.999,920.765C849.259,919.81 849.563,918.812 849.91,917.77C850.605,915.339 851.429,912.909 852.384,910.478C853.339,908.048 854.771,905.877 856.681,903.968C857.028,902.752 857.809,900.799 859.025,898.108C860.24,895.417 862.323,891.381 865.275,885.999C867.705,881.832 869.615,878.534 871.004,876.103C872.393,873.673 873.521,871.763 874.389,870.374C872.653,867.596 870.57,865.079 868.139,862.822C865.882,858.482 863.929,854.315 862.28,850.322C860.631,846.329 859.372,842.77 858.504,839.645C858.33,837.388 858.07,835.478 857.723,833.916C857.375,832.353 857.028,830.704 856.681,828.968C856.16,827.058 855.726,825.148 855.379,823.239C855.032,821.329 854.858,819.332 854.858,817.249C853.99,816.034 853.469,814.818 853.296,813.603L853.816,810.999C854.337,809.784 854.424,808.178 854.077,806.181C853.73,804.185 853.296,802.145 852.775,800.062C852.428,798.325 852.037,796.416 851.603,794.332C851.169,792.249 851.039,790.166 851.212,788.082C851.386,785.999 851.95,784.046 852.905,782.223C853.86,780.4 855.466,778.794 857.723,777.405L862.15,777.145C863.712,778.013 865.231,778.838 866.707,779.619C868.183,780.4 869.615,781.225 871.004,782.093C872.914,782.961 874.737,783.829 876.473,784.697C878.209,785.565 880.032,786.693 881.941,788.082L883.764,791.728L887.15,794.593L887.15,797.457C887.323,798.152 887.41,799.107 887.41,800.322C887.41,802.579 887.757,803.968 888.452,804.489L889.493,807.614C889.493,810.044 889.754,812.344 890.275,814.515C890.796,816.685 891.316,818.725 891.837,820.634C892.358,822.544 892.879,824.541 893.4,826.624C893.921,828.707 894.007,830.964 893.66,833.395C894.702,832.874 895.57,832.266 896.264,831.572C896.59,831.246 896.915,830.997 897.241,830.824L897.371,830.757C897.697,830.584 898.022,830.335 898.348,830.009L913.712,809.176L913.191,806.572L918.66,801.364C920.049,799.975 921.395,798.673 922.697,797.457C923.999,796.242 925.084,794.94 925.952,793.551L928.816,791.468C934.372,782.787 942.271,777.405 952.514,775.322ZM684.025,859.437C683.851,861.52 684.025,863.516 684.546,865.426C685.066,867.336 685.717,869.202 686.499,871.025C687.28,872.848 688.018,874.714 688.712,876.624C689.407,878.534 689.928,880.443 690.275,882.353C690.622,884.784 690.622,887.431 690.275,890.296C689.928,893.16 689.32,895.938 688.452,898.629C687.584,901.32 686.455,903.751 685.066,905.921C683.678,908.091 682.028,909.697 680.118,910.739C677.688,913.864 674.737,916.294 671.264,918.03C667.792,919.766 664.58,921.85 661.629,924.28C659.719,925.496 657.592,926.364 655.249,926.884C652.905,927.405 650.518,927.926 648.087,928.447C646.178,929.489 643.921,930.574 641.316,931.702C638.712,932.831 636.021,933.872 633.243,934.827C630.466,935.782 627.688,936.476 624.91,936.91C622.132,937.344 619.702,937.475 617.618,937.301C612.41,939.211 607.332,940.469 602.384,941.077C597.436,941.685 591.664,941.294 585.066,939.905C578.816,940.773 573.044,940.513 567.749,939.124C562.454,937.735 557.766,935.522 553.686,932.483C549.606,929.445 546.047,925.799 543.009,921.546C539.971,917.292 537.497,912.822 535.587,908.134C534.198,898.239 534.546,889.254 536.629,881.181C538.712,873.108 541.707,865.643 545.613,858.785C549.52,851.928 553.99,845.591 559.025,839.775C564.059,833.959 568.921,828.273 573.608,822.718C574.65,823.065 575.474,823.022 576.082,822.588C576.69,822.154 577.254,821.546 577.775,820.765C578.296,819.983 578.86,819.246 579.467,818.551C580.075,817.857 580.813,817.423 581.681,817.249C582.896,814.645 584.676,812.692 587.02,811.39C589.363,810.088 591.23,808.221 592.618,805.791C594.181,805.443 595.483,804.923 596.525,804.228C597.566,803.534 598.565,802.752 599.52,801.884C600.474,801.016 601.473,800.192 602.514,799.41C603.556,798.629 604.771,798.065 606.16,797.718L606.16,794.853C609.285,793.464 611.586,791.858 613.061,790.035C614.537,788.213 616.316,785.999 618.4,783.395C619.962,783.221 621.221,783.134 622.176,783.134C623.131,783.134 624.563,782.961 626.473,782.614C627.862,780.183 629.12,778.36 630.249,777.145C631.377,775.93 633.07,774.627 635.327,773.239C637.41,774.28 639.711,774.975 642.228,775.322C644.745,775.669 646.959,776.798 648.868,778.707C649.042,780.443 649.563,781.789 650.431,782.744C651.299,783.699 652.254,784.567 653.296,785.348C654.337,786.129 655.336,786.954 656.29,787.822C657.245,788.69 657.896,789.905 658.243,791.468C658.938,791.641 659.415,791.555 659.676,791.207C659.936,790.86 660.414,790.773 661.108,790.947C661.629,793.377 662.237,794.983 662.931,795.765C663.625,796.546 664.32,798.065 665.014,800.322C664.146,802.058 663.495,803.838 663.061,805.66C662.627,807.483 661.542,808.829 659.806,809.697C659.632,810.912 659.98,811.563 660.848,811.65C661.716,811.737 662.237,812.214 662.41,813.082C662.584,814.645 662.323,815.773 661.629,816.468C665.796,823.239 669.528,830.4 672.827,837.952C676.125,845.504 679.858,852.666 684.025,859.437ZM397.598,879.894C397.588,879.976 397.577,880.058 397.566,880.14C397.393,881.442 397.132,882.483 396.785,883.265C396.438,884.046 395.917,884.176 395.223,883.655C396.264,886.259 396.525,888.777 396.004,891.207C395.598,893.103 395.112,894.999 394.547,896.895C391.075,901.435 386.96,905.137 382.202,908.004C375.431,912.084 367.966,915.469 359.806,918.16C351.646,920.851 343.096,923.239 334.155,925.322C325.214,927.405 316.577,930.096 308.243,933.395C305.813,933.395 303.686,933.482 301.863,933.655C300.04,933.829 298.304,934.046 296.655,934.306C295.006,934.567 293.4,934.827 291.837,935.088C290.275,935.348 288.539,935.565 286.629,935.739C285.934,935.565 285.5,935.695 285.327,936.129C285.153,936.563 284.893,936.954 284.546,937.301C281.594,937.822 278.947,938.082 276.603,938.082L270.743,938.082C268.66,938.082 266.533,938.386 264.363,938.994C262.193,939.601 260.24,939.818 258.504,939.645C245.483,938.95 235.283,934.306 227.905,925.713C220.526,917.119 216.403,905.183 215.535,889.905C215.709,889.037 215.579,888.516 215.145,888.343C214.711,888.169 214.32,887.909 213.973,887.562C213.973,885.825 214.19,884.35 214.624,883.134C215.058,881.919 215.101,880.357 214.754,878.447C219.268,868.898 224.389,860.001 230.118,851.754C235.848,843.508 242.705,836.259 250.691,830.009C251.907,828.968 252.948,827.926 253.816,826.884C254.684,825.843 255.509,824.801 256.29,823.759C257.072,822.718 257.983,821.806 259.025,821.025C260.066,820.244 261.368,819.68 262.931,819.332C266.577,815.166 270.917,811.346 275.952,807.874C280.987,804.402 286.282,801.06 291.837,797.848C297.393,794.636 302.905,791.424 308.374,788.213C313.842,785.001 318.834,781.398 323.348,777.405C325.257,778.273 326.646,778.534 327.514,778.187C328.382,777.839 329.337,777.839 330.379,778.187C331.594,780.791 333.287,782.614 335.457,783.655C337.627,784.697 339.797,785.782 341.967,786.91C344.138,788.039 346.178,789.384 348.087,790.947C349.997,792.509 351.473,794.593 352.514,797.197C351.473,797.197 350.995,797.588 351.082,798.369C351.169,799.15 351.386,799.931 351.733,800.713C352.08,801.494 352.211,802.275 352.124,803.056C352.037,803.838 351.386,804.228 350.171,804.228C350.344,805.096 350.908,805.574 351.863,805.66C352.818,805.747 353.296,806.225 353.296,807.093C353.296,807.961 353.079,808.655 352.645,809.176C352.211,809.697 352.167,810.565 352.514,811.78C349.042,814.037 345.179,816.207 340.926,818.291C336.672,820.374 332.245,822.588 327.645,824.931C323.044,827.275 318.27,829.792 313.322,832.483C308.374,835.174 303.556,838.256 298.868,841.728C294.181,845.2 289.407,849.063 284.546,853.317C279.684,857.57 274.997,862.041 270.483,866.728C265.969,871.416 261.716,876.233 257.723,881.181C253.73,886.129 250.344,891.034 247.566,895.895C247.914,896.763 248.304,897.414 248.738,897.848C249.172,898.282 249.563,898.933 249.91,899.801C255.466,900.148 260.631,900.105 265.405,899.671C270.179,899.237 274.997,899.541 279.858,900.582C280.379,900.235 280.726,899.714 280.9,899.02C281.073,898.325 281.507,897.805 282.202,897.457C292.098,896.416 301.299,894.81 309.806,892.64C318.313,890.469 326.993,888.169 335.848,885.739C334.459,885.218 333.2,884.74 332.072,884.306C330.943,883.872 329.858,883.482 328.816,883.134C327.948,882.266 327.992,881.529 328.947,880.921C329.901,880.313 330.726,879.662 331.421,878.968C328.99,877.579 327.037,875.843 325.561,873.759C324.086,871.676 323.174,868.898 322.827,865.426C323.868,864.558 324.389,863.516 324.389,862.301C324.389,861.086 323.868,860.131 322.827,859.437C322.132,859.263 321.698,859.263 321.525,859.437C321.351,859.61 321.221,859.871 321.134,860.218C321.047,860.565 320.917,860.869 320.743,861.129C320.57,861.39 320.136,861.346 319.441,860.999C319.615,859.437 320.006,858.134 320.613,857.093C321.221,856.051 321.698,854.836 322.046,853.447L340.014,841.468C341.924,842.857 344.268,844.376 347.046,846.025C349.823,847.674 352.731,849.324 355.77,850.973C358.808,852.622 361.933,854.272 365.145,855.921C368.356,857.57 371.351,859.176 374.129,860.739C376.559,861.78 378.73,863.169 380.639,864.905C382.549,866.641 384.372,868.421 386.108,870.244C387.844,872.067 389.624,873.846 391.447,875.582C393.212,877.264 395.263,878.701 397.598,879.894ZM808.243,938.082C805.466,938.256 802.037,938.169 797.957,937.822C793.877,937.475 790.101,938.082 786.629,939.645C777.428,939.298 768.053,938.169 758.504,936.259C748.955,934.35 740.188,932.006 732.202,929.228C730.466,927.318 728.73,925.539 726.993,923.89C725.257,922.24 722.914,921.068 719.962,920.374C715.796,917.075 712.41,913.039 709.806,908.265C707.202,903.49 705.118,898.412 703.556,893.03C701.993,887.648 700.952,882.136 700.431,876.494C699.91,870.851 699.737,865.426 699.91,860.218C702.514,852.405 706.204,845.678 710.978,840.035C715.752,834.393 720.657,828.794 725.691,823.239C727.948,822.197 729.641,821.112 730.77,819.983C731.898,818.855 733.113,817.813 734.415,816.858C735.717,815.904 737.02,814.949 738.322,813.994C739.624,813.039 740.796,811.867 741.837,810.478C745.483,809.61 748.651,808.351 751.342,806.702C754.033,805.053 756.681,803.317 759.285,801.494C761.889,799.671 764.58,797.978 767.358,796.416C770.136,794.853 773.348,793.638 776.993,792.77C778.382,791.207 780.032,789.949 781.941,788.994C783.851,788.039 785.804,787.084 787.801,786.129C789.797,785.174 791.707,784.176 793.53,783.134C795.353,782.093 796.785,780.704 797.827,778.968C798.695,780.357 799.91,780.834 801.473,780.4C803.035,779.966 804.511,779.489 805.9,778.968C806.768,778.794 807.506,778.968 808.113,779.489C808.721,780.009 809.285,780.53 809.806,781.051C810.327,781.572 810.804,781.876 811.238,781.963C811.672,782.049 812.063,781.659 812.41,780.791C813.278,780.791 813.539,781.225 813.191,782.093C812.844,782.961 812.584,783.568 812.41,783.916C813.799,783.742 814.971,784.046 815.926,784.827C816.881,785.608 818.4,786.086 820.483,786.259C821.178,787.127 821.351,787.779 821.004,788.213C820.657,788.647 820.483,789.384 820.483,790.426C825.691,791.989 828.99,794.463 830.379,797.848C831.768,801.233 831.855,804.749 830.639,808.395C829.424,812.041 827.254,815.426 824.129,818.551C821.004,821.676 817.618,823.759 813.973,824.801C805.639,827.058 797.783,829.532 790.405,832.223C783.026,834.914 776.993,838.864 772.306,844.072C768.139,845.287 764.45,846.893 761.238,848.89C758.026,850.886 754.988,853.143 752.124,855.66C749.259,858.178 746.568,860.782 744.051,863.473C741.533,866.164 738.886,868.812 736.108,871.416C736.282,873.846 735.891,875.713 734.936,877.015C733.981,878.317 733.07,879.662 732.202,881.051C732.549,883.655 733.157,885.956 734.025,887.952C734.893,889.949 735.848,891.902 736.889,893.812C748.348,897.284 760.544,899.454 773.478,900.322C786.412,901.19 799.389,901.711 812.41,901.884C813.625,903.621 815.058,905.226 816.707,906.702C818.356,908.178 819.875,909.74 821.264,911.39C822.653,913.039 823.782,914.862 824.65,916.858C825.518,918.855 825.691,921.329 825.171,924.28C822.74,926.884 820.049,929.272 817.098,931.442C814.146,933.612 811.195,935.825 808.243,938.082ZM651.473,884.176C652.167,882.266 653.079,880.704 654.207,879.489C655.336,878.273 655.987,876.45 656.16,874.02C655.292,872.631 654.771,871.546 654.598,870.765C654.424,869.983 654.337,868.725 654.337,866.989C650.518,861.607 647.219,855.834 644.441,849.671C641.664,843.508 638.539,837.735 635.066,832.353C634.719,833.048 634.112,833.742 633.243,834.437C632.375,835.131 631.421,834.957 630.379,833.916C630.032,835.305 629.424,836.303 628.556,836.91C627.688,837.518 626.733,837.779 625.691,837.692C624.65,837.605 623.565,837.344 622.436,836.91C621.308,836.476 620.309,835.912 619.441,835.218C614.407,839.211 609.372,843.117 604.337,846.937C599.303,850.756 594.789,855.183 590.796,860.218C590.101,860.565 589.667,860.695 589.493,860.608C589.32,860.522 588.799,860.652 587.931,860.999C586.542,864.298 584.849,867.292 582.853,869.983C580.856,872.674 578.903,875.409 576.993,878.187C575.084,880.964 573.434,883.916 572.046,887.041C570.657,890.166 569.875,893.812 569.702,897.978C572.653,900.409 576.125,901.884 580.118,902.405C584.112,902.926 588.235,903.013 592.488,902.666C596.742,902.318 600.908,901.754 604.988,900.973C609.068,900.192 612.844,899.801 616.316,899.801C623.608,898.065 629.858,895.765 635.066,892.9C640.275,890.035 645.743,887.127 651.473,884.176ZM467.098,821.155C465.188,823.933 463.061,826.45 460.717,828.707C458.374,830.964 456.117,833.265 453.947,835.608C451.776,837.952 449.823,840.556 448.087,843.421C446.351,846.285 445.136,849.627 444.441,853.447C450.518,852.752 456.855,851.06 463.452,848.369C470.049,845.678 476.299,843.117 482.202,840.687C481.507,835.305 479.641,830.964 476.603,827.666C473.565,824.367 470.396,822.197 467.098,821.155ZM649.77,694.053C648.143,694.053 646.385,694.167 644.497,694.395C642.609,694.623 640.753,694.867 638.93,695.128C637.628,695.323 636.375,695.486 635.17,695.616C633.966,695.746 632.876,695.844 631.899,695.909C631.443,697.341 630.988,698.611 630.532,699.717C630.076,700.824 629.588,701.898 629.067,702.94C628.546,704.047 628.074,705.17 627.651,706.309C627.228,707.449 626.821,708.669 626.43,709.971C625.779,711.013 625.242,711.973 624.819,712.852C624.396,713.731 624.054,714.724 623.794,715.831C623.012,716.807 622.426,717.833 622.036,718.907C621.645,719.981 621.352,720.909 621.157,721.69L620.766,722.862C620.376,723.253 620.148,723.562 620.083,723.79C620.018,724.018 619.855,724.229 619.594,724.424C619.529,725.141 619.301,725.857 618.911,726.573C618.781,726.898 618.683,727.208 618.618,727.501C618.553,727.794 618.52,728.005 618.52,728.135C618.52,728.786 618.357,729.21 618.032,729.405C618.097,729.73 618.097,730.072 618.032,730.43C617.967,730.788 617.902,731.13 617.837,731.456C617.641,732.237 617.576,732.855 617.641,733.311C617.837,733.572 618.016,733.799 618.178,733.995C618.341,734.19 618.455,734.45 618.52,734.776C618.911,735.036 619.204,735.199 619.399,735.264C619.659,735.46 620.05,735.687 620.571,735.948L621.45,736.924C621.775,738.812 621.482,740.31 620.571,741.417C619.594,742.654 617.934,743.272 615.59,743.272L614.419,743.272C614.093,742.947 613.898,742.686 613.833,742.491C613.312,742.296 612.889,742.133 612.563,742.003C612.238,741.872 611.945,741.612 611.684,741.221C610.838,740.831 610.154,740.505 609.633,740.245L608.754,739.756L608.754,738.585C608.299,737.999 607.957,737.348 607.729,736.631C607.501,735.915 607.322,735.199 607.192,734.483C607.062,733.897 606.915,733.344 606.753,732.823C606.59,732.302 606.378,731.846 606.118,731.456C605.988,727.68 606.346,724.49 607.192,721.885C608.038,719.281 608.917,716.775 609.829,714.366C610.35,713.064 610.87,711.745 611.391,710.411C611.912,709.076 612.368,707.693 612.758,706.26L613.637,705.284C614.093,704.242 614.467,703.38 614.76,702.696C615.053,702.012 615.363,701.312 615.688,700.596C615.883,700.141 616.062,699.701 616.225,699.278C616.388,698.855 616.534,698.48 616.665,698.155C616.274,698.155 615.916,698.171 615.59,698.204C615.265,698.236 614.939,698.285 614.614,698.35C614.223,698.415 613.865,698.464 613.54,698.497C613.214,698.529 612.889,698.546 612.563,698.546C612.107,698.546 611.782,698.513 611.587,698.448C610.87,698.773 610.089,698.936 609.243,698.936L608.266,698.936C608.071,698.936 607.892,698.92 607.729,698.887C607.566,698.855 607.42,698.839 607.29,698.839C606.639,698.839 606.118,698.936 605.727,699.131L602.504,699.131C602.374,699.131 602.212,699.148 602.016,699.18C601.821,699.213 601.658,699.229 601.528,699.229C601.072,699.229 600.584,699.18 600.063,699.083C599.542,698.985 598.989,698.773 598.403,698.448C597.622,697.406 597.101,696.853 596.84,696.788L595.962,695.616C595.896,695.225 595.799,694.851 595.669,694.493C595.538,694.135 595.408,693.728 595.278,693.272C595.018,692.621 594.773,691.921 594.545,691.173C594.318,690.424 594.204,689.529 594.204,688.487C594.269,687.966 594.399,687.575 594.594,687.315C594.79,687.055 594.952,686.827 595.083,686.631L595.376,685.167L596.645,685.264L599.379,685.264C601.463,685.264 603.579,685.183 605.727,685.02C607.876,684.857 610.089,684.678 612.368,684.483C613.67,684.353 614.988,684.223 616.323,684.092C617.657,683.962 619.041,683.832 620.473,683.702C620.734,683.116 620.994,682.562 621.254,682.042L622.231,681.553C623.403,681.488 624.233,681.635 624.721,681.993C625.21,682.351 625.616,682.693 625.942,683.018C627.374,682.888 628.823,682.742 630.288,682.579C631.753,682.416 633.234,682.204 634.731,681.944C636.945,681.618 639.174,681.325 641.42,681.065C643.667,680.805 645.831,680.674 647.915,680.674C648.826,680.674 649.705,680.707 650.551,680.772C651.398,680.837 652.179,680.935 652.895,681.065L653.872,681.749C654.067,682.139 654.344,682.497 654.702,682.823C655.06,683.148 655.434,683.474 655.825,683.799C656.606,684.516 657.387,685.362 658.169,686.339C658.95,687.315 659.243,688.747 659.047,690.635C658.527,691.417 658.136,691.872 657.876,692.003L656.997,693.174L656.02,693.077C655.629,693.077 655.271,693.126 654.946,693.223C654.62,693.321 654.295,693.435 653.969,693.565C653.709,693.695 653.448,693.809 653.188,693.907C652.928,694.005 652.635,694.086 652.309,694.151C651.723,694.151 651.251,694.135 650.893,694.102C650.535,694.07 650.161,694.053 649.77,694.053ZM581.631,683.891L581.849,684.057C582.188,684.316 582.513,684.589 582.827,684.874C583.185,685.199 583.429,685.655 583.559,686.241C583.803,686.302 583.976,686.277 584.077,686.166L584.116,686.12C584.217,686.009 584.389,685.985 584.633,686.046C584.829,686.957 585.057,687.559 585.317,687.852C585.577,688.145 585.838,688.715 586.098,689.561C585.773,690.212 585.529,690.88 585.366,691.563C585.203,692.247 584.796,692.751 584.145,693.077C584.08,693.533 584.21,693.777 584.536,693.809C584.861,693.842 585.057,694.021 585.122,694.346C585.187,694.932 585.089,695.355 584.829,695.616C586.391,698.155 587.791,700.84 589.028,703.673C590.265,706.505 591.665,709.19 593.227,711.729C593.162,712.51 593.227,713.259 593.422,713.975C593.618,714.691 593.862,715.391 594.155,716.075C594.448,716.758 594.725,717.458 594.985,718.174C595.245,718.891 595.441,719.607 595.571,720.323C595.701,721.234 595.701,722.227 595.571,723.301C595.441,724.376 595.213,725.417 594.887,726.426C594.562,727.436 594.139,728.347 593.618,729.161C593.097,729.975 592.478,730.577 591.762,730.967C590.851,732.139 589.744,733.051 588.442,733.702C587.14,734.353 585.935,735.134 584.829,736.046C584.113,736.501 583.315,736.827 582.436,737.022C581.557,737.217 580.662,737.413 579.751,737.608C579.034,737.999 578.188,738.406 577.212,738.829C576.235,739.252 575.226,739.643 574.184,740.001C573.143,740.359 572.101,740.619 571.059,740.782C570.018,740.945 569.106,740.993 568.325,740.928C566.372,741.645 564.467,742.117 562.612,742.344C560.756,742.572 558.592,742.426 556.118,741.905C553.774,742.23 551.609,742.133 549.624,741.612C547.638,741.091 545.88,740.261 544.35,739.122C542.82,737.982 541.486,736.615 540.346,735.02C539.207,733.425 538.279,731.749 537.563,729.991C537.042,726.28 537.172,722.911 537.954,719.883C538.735,716.856 539.858,714.057 541.323,711.485C542.788,708.913 544.464,706.537 546.352,704.356C548.24,702.175 550.063,700.043 551.821,697.96C552.212,698.09 552.521,698.074 552.749,697.911C552.976,697.748 553.188,697.52 553.383,697.227C553.579,696.934 553.79,696.658 554.018,696.397C554.246,696.137 554.523,695.974 554.848,695.909C555.304,694.932 555.971,694.2 556.85,693.712C557.729,693.223 558.429,692.523 558.95,691.612C559.536,691.482 560.024,691.286 560.415,691.026C560.805,690.766 561.18,690.473 561.538,690.147C561.896,689.822 562.27,689.512 562.661,689.219C563.051,688.926 563.507,688.715 564.028,688.585L564.028,687.51C565.2,686.99 566.062,686.387 566.616,685.704C567.169,685.02 567.837,684.19 568.618,683.214C569.204,683.148 569.676,683.116 570.034,683.116C570.392,683.116 570.929,683.051 571.645,682.921C572.166,682.009 572.638,681.325 573.061,680.87C573.484,680.414 574.119,679.926 574.965,679.405C575.747,679.796 576.609,680.056 577.553,680.186C578.497,680.316 579.327,680.74 580.044,681.456C580.109,682.107 580.304,682.611 580.629,682.969C580.935,683.305 581.268,683.612 581.631,683.891ZM526.651,680.822L526.723,680.674C527.7,680.805 528.53,681.114 529.213,681.602C529.897,682.09 530.532,682.611 531.118,683.165C531.704,683.718 532.322,684.239 532.973,684.727C533.624,685.215 534.438,685.525 535.415,685.655C536.196,686.762 536.912,687.836 537.563,688.878C538.214,689.919 538.637,691.026 538.833,692.198C538.507,692.719 538.263,693.305 538.1,693.956C537.937,694.607 537.758,695.258 537.563,695.909C537.368,696.56 537.107,697.162 536.782,697.715C536.456,698.269 536.001,698.741 535.415,699.131C535.219,700.824 534.975,702.37 534.682,703.77C534.389,705.17 534.096,706.553 533.803,707.921C533.51,709.288 533.266,710.704 533.071,712.169C532.876,713.633 532.81,715.245 532.876,717.003C532.355,718.5 531.801,720.095 531.215,721.788C530.629,723.48 530.174,725.01 529.848,726.378C528.807,727.224 527.993,728.233 527.407,729.405C526.821,730.577 526.202,731.749 525.551,732.921C525.291,733.181 525.128,733.246 525.063,733.116C524.998,732.986 524.77,732.888 524.379,732.823C524.445,733.083 524.445,733.279 524.379,733.409C524.314,733.539 524.233,733.653 524.135,733.751C524.038,733.848 523.973,733.995 523.94,734.19C523.907,734.385 523.956,734.646 524.087,734.971C523.175,735.362 522.361,735.915 521.645,736.631C520.929,737.348 520.164,737.999 519.35,738.585C518.536,739.171 517.56,739.561 516.42,739.756C515.281,739.952 513.8,739.724 511.977,739.073C509.308,737.12 506.948,734.874 504.897,732.335C502.846,729.796 501.17,726.768 499.868,723.253C499.282,723.383 498.859,723.725 498.598,724.278C498.338,724.831 498.094,725.401 497.866,725.987C497.638,726.573 497.41,727.11 497.182,727.598C496.954,728.087 496.613,728.331 496.157,728.331C496.092,728.852 495.913,729.307 495.62,729.698C495.327,730.089 495.05,730.495 494.79,730.919C494.529,731.342 494.334,731.798 494.204,732.286C494.073,732.774 494.139,733.344 494.399,733.995C493.878,734.385 493.553,734.939 493.422,735.655C493.292,736.371 493.146,737.055 492.983,737.706C492.82,738.357 492.544,738.91 492.153,739.366C491.762,739.822 491.046,740.017 490.004,739.952C489.809,740.212 489.777,740.375 489.907,740.44C490.037,740.505 490.135,740.733 490.2,741.124C489.484,740.993 488.947,741.042 488.588,741.27C488.23,741.498 487.791,741.645 487.27,741.71C486.033,741.319 485.008,740.635 484.194,739.659C483.38,738.682 482.664,737.592 482.045,736.387C481.427,735.183 480.874,733.962 480.385,732.725C479.897,731.488 479.425,730.414 478.969,729.503C479.165,728.786 479.197,728.087 479.067,727.403C478.937,726.719 478.709,726.15 478.383,725.694C481.573,718.923 485.057,711.697 488.833,704.014C492.609,696.332 496.189,688.747 499.575,681.26C501.072,681.846 502.553,682.514 504.018,683.262C505.483,684.011 506.818,684.874 508.022,685.85C509.226,686.827 510.252,687.95 511.098,689.219C511.945,690.489 512.498,691.905 512.758,693.467C512.628,693.858 512.482,694.005 512.319,693.907C512.156,693.809 512.01,693.858 511.879,694.053C512.14,694.379 512.286,694.607 512.319,694.737C512.351,694.867 512.351,694.997 512.319,695.128C512.286,695.258 512.27,695.437 512.27,695.665C512.27,695.893 512.368,696.202 512.563,696.592C512.303,696.527 512.124,696.56 512.026,696.69C511.928,696.82 511.717,696.82 511.391,696.69C511.652,697.406 511.733,697.992 511.635,698.448C511.538,698.904 511.391,699.311 511.196,699.669C511.001,700.027 510.838,700.417 510.708,700.84C510.577,701.264 510.61,701.801 510.805,702.452C510.61,702.452 510.463,702.501 510.366,702.598C510.28,702.684 510.207,702.769 510.147,702.855L510.096,702.928C510.036,703.013 509.963,703.099 509.878,703.184C509.78,703.282 509.633,703.298 509.438,703.233C509.633,704.665 509.698,706.098 509.633,707.53C509.568,708.962 509.519,710.411 509.487,711.876C509.454,713.34 509.471,714.87 509.536,716.465C509.601,718.061 509.829,719.704 510.219,721.397C512.563,720.03 514.435,718.272 515.835,716.124C517.234,713.975 518.374,711.566 519.253,708.897C520.131,706.228 520.799,703.363 521.254,700.303C521.71,697.243 522.198,694.118 522.719,690.928C523.305,690.342 523.761,689.626 524.087,688.78C524.412,687.934 524.705,687.038 524.965,686.094C525.226,685.15 525.486,684.206 525.747,683.262C525.991,682.377 526.292,681.564 526.651,680.822ZM581.02,721.006C581.281,720.29 581.622,719.704 582.045,719.249C582.469,718.793 582.713,718.109 582.778,717.198C582.452,716.677 582.257,716.27 582.192,715.977C582.127,715.684 582.094,715.212 582.094,714.561C580.662,712.543 579.425,710.378 578.383,708.067C577.342,705.756 576.17,703.591 574.868,701.573C574.738,701.833 574.51,702.094 574.184,702.354C573.859,702.615 573.501,702.549 573.11,702.159C572.98,702.68 572.752,703.054 572.426,703.282C572.101,703.51 571.743,703.607 571.352,703.575C570.962,703.542 570.555,703.445 570.131,703.282C569.708,703.119 569.334,702.908 569.008,702.647C567.12,704.145 565.232,705.609 563.344,707.042C561.456,708.474 559.764,710.134 558.266,712.022C558.006,712.152 557.843,712.201 557.778,712.169C557.713,712.136 557.518,712.185 557.192,712.315C556.671,713.552 556.036,714.675 555.288,715.684C554.539,716.693 553.807,717.719 553.09,718.76C552.374,719.802 551.756,720.909 551.235,722.081C550.714,723.253 550.421,724.62 550.356,726.182C551.463,727.094 552.765,727.647 554.262,727.842C555.76,728.038 557.306,728.07 558.901,727.94C560.496,727.81 562.059,727.598 563.588,727.305C565.118,727.012 566.534,726.866 567.837,726.866C570.571,726.215 572.915,725.352 574.868,724.278C576.821,723.204 578.872,722.113 581.02,721.006Z" style="fill:white;fill-rule:nonzero;"/>
        </g>
        <g transform="matrix(1,0,0,1,114.511,-89.788)">
            <path d="M295.276,620.079C295.276,620.079 363.96,224.026 590.551,224.409C817.142,224.793 885.827,620.079 885.827,620.079L826.772,620.079C826.772,620.079 762.951,236.292 590.551,236.22C422.725,236.151 354.331,620.079 354.331,620.079L295.276,620.079Z" style="fill:white;"/>
        </g>
    </g>
</svg>
