<?xml version="1.0" encoding="UTF-8" standalone="no"?>
<!DOCTYPE svg PUBLIC "-//W3C//DTD SVG 1.1//EN" "http://www.w3.org/Graphics/SVG/1.1/DTD/svg11.dtd">
<svg width="100%" height="100%" viewBox="0 0 1182 1182" version="1.1" xmlns="http://www.w3.org/2000/svg" xmlns:xlink="http://www.w3.org/1999/xlink" xml:space="preserve" xmlns:serif="http://www.serif.com/" style="fill-rule:evenodd;clip-rule:evenodd;stroke-linejoin:round;stroke-miterlimit:2;">
    <g>
        <path d="M301.457,537.391C322.658,445.561 401.846,170.93 590.551,171.25C779.211,171.569 858.406,445.644 879.633,537.391L1122.05,537.391L954.799,983.386C944.01,1009.93 943.833,1009.99 915.938,1009.83L265.748,1009.83C237.041,1009.74 236.892,1010.19 225.591,983.848L59.055,537.391L301.457,537.391ZM496.063,944.882L685.039,944.882L685.039,826.772C684.589,808.177 682.315,781.43 614.173,779.528C570.28,778.302 566.929,779.528 566.929,779.528C497.494,780.529 495.576,808.298 496.063,826.772L496.063,944.882ZM590.04,664.566C619.374,664.559 643.196,688.368 643.204,717.702C643.212,747.036 619.403,770.858 590.069,770.866C560.735,770.874 536.913,747.064 536.905,717.73C536.897,688.396 560.706,664.574 590.04,664.566ZM821.013,537.391L360.416,537.391C380.458,447.481 451.255,183.003 590.551,183.061C733.626,183.12 801.918,447.457 821.013,537.391Z" style="fill:white;"/>
    </g>
</svg>
